HIERARCHY
ROOT Hips
{
  OFFSET 46.82207107543945 -59.04210805892944 0.0010819640010595322
  CHANNELS 6 Xposition Yposition Zposition Xrotation Yrotation Zrotation
  JOINT Spine
  {
    OFFSET -1.2058248122533115 5.467524131139122 -8.225524720425408
    CHANNELS 3 Xrotation Yrotation Zrotation
    JOINT Spine1
    {
      OFFSET -0.8038832081688838 3.6450160874260717 -5.48368314695027
      CHANNELS 3 Xrotation Yrotation Zrotation
      JOINT Spine2
      {
        OFFSET -0.8038832081688767 3.645016087426086 -5.483683146950273
        CHANNELS 3 Xrotation Yrotation Zrotation
        JOINT Neck
        {
          OFFSET -1.2058248122533115 5.467524131139115 -8.225524720425405
          CHANNELS 3 Xrotation Yrotation Zrotation
          JOINT Head
          {
            OFFSET -0.9295318689611278 1.984565373924049 -4.50340492081725
            CHANNELS 3 Xrotation Yrotation Zrotation
            End Site
            {
              OFFSET 0 0 0
            }
          }
        }
        JOINT LeftShoulder
        {
          OFFSET 0.46457813845740503 4.005969895256889 -7.544616806424326
          CHANNELS 3 Xrotation Yrotation Zrotation
          JOINT LeftArm
          {
            OFFSET 2.5369226932525635 0.7219076156616211 -4.121867318948109
            CHANNELS 3 Xrotation Yrotation Zrotation
            JOINT LeftForeArm
            {
              OFFSET 4.607576131820679 -11.81911826133728 -0.8936822414398193
              CHANNELS 3 Xrotation Yrotation Zrotation
              JOINT LeftHand
              {
                OFFSET 0.6915509700775146 -11.635690927505493 -4.888880252838135
                CHANNELS 3 Xrotation Yrotation Zrotation
                End Site
                {
                  OFFSET 0 0 0
                }
              }
            }
          }
        }
        JOINT RightShoulder
        {
          OFFSET -2.0723445547951584 3.2840622795952683 -3.422749487476217
          CHANNELS 3 Xrotation Yrotation Zrotation
          JOINT RightArm
          {
            OFFSET -2.5369226932525635 -0.7219076156616211 4.121867318948112
            CHANNELS 3 Xrotation Yrotation Zrotation
            JOINT RightForeArm
            {
              OFFSET -2.9952138662338257 -6.997698545455933 9.291533380746841
              CHANNELS 3 Xrotation Yrotation Zrotation
              JOINT RightHand
              {
                OFFSET -4.614326357841492 -4.685533046722412 1.068349927663803
                CHANNELS 3 Xrotation Yrotation Zrotation
                End Site
                {
                  OFFSET 0 0 0
                }
              }
            }
          }
        }
      }
    }
  }
  JOINT LeftUpLeg
  {
    OFFSET 2.1851807832717896 0.3100275993347168 -0.8264350239187479
    CHANNELS 3 Xrotation Yrotation Zrotation
    JOINT LeftLeg
    {
      OFFSET 2.1056383848190308 -16.273707151412964 -0.5426528863608837
      CHANNELS 3 Xrotation Yrotation Zrotation
      JOINT LeftFoot
      {
        OFFSET -2.0275503396987915 -12.393641471862793 22.925514355301857
        CHANNELS 3 Xrotation Yrotation Zrotation
        JOINT LeftToeBase
        {
          OFFSET 0.8445554971694946 -4.20859694480896 -5.926468819379805
          CHANNELS 3 Xrotation Yrotation Zrotation
          End Site
          {
            OFFSET 0 0 0
          }
        }
      }
    }
  }
  JOINT RightUpLeg
  {
    OFFSET -2.1851807832717896 -0.3100275993347168 0.8264350239187479
    CHANNELS 3 Xrotation Yrotation Zrotation
    JOINT RightLeg
    {
      OFFSET -0.9887039661407471 -14.45702314376831 -31.3066978007555
      CHANNELS 3 Xrotation Yrotation Zrotation
      JOINT RightFoot
      {
        OFFSET -1.1222213506698608 -19.014567136764526 6.933662295341492
        CHANNELS 3 Xrotation Yrotation Zrotation
        JOINT RightToeBase
        {
          OFFSET 0.23304462432861328 -4.958255290985107 -8.707971572875977
          CHANNELS 3 Xrotation Yrotation Zrotation
          End Site
          {
            OFFSET 0 0 0
          }
        }
      }
    }
  }
}
MOTION
Frames: 5
Frame Time: 0.03333333333333333
40.07752239704132 -55.85107505321503 -0.014442764222621918 -0.0 -65.5304160822142 -174.2158931751877 4.038485121402938 0.6435039865547377 9.061315805473233 4.038485121402938 0.6435039865547377 9.061315805473233 4.038485121402938 0.6435039865547377 9.061315805473233 -54.314921395603996 -30.328712646426688 35.76390814792395 15.276939692293805 -174.6195443732432 -29.23022897577658 -6.4089800685599405 164.47625374572428 7.579287866334503 -6.624234309956833 -6.593488151057133 -134.94257453869 47.077442192069825 54.93386416955094 -117.20339315412535 19.186976437717266 173.36749248389086 54.96581923674065 -6.4089800685599405 164.47625374572428 7.579287866334503 8.608545193118697 -1.133133160065252 -172.4723963261293 54.19121358684092 -40.586422590977406 -133.4296467493712 6.825618271355423 -168.9961924766106 -73.53648961188199 27.762492097488103 4.699264285534404 10.008065879159105 -13.114186985121163 4.16223157858229 -17.78294386720046 19.71452882001763 158.52622602139436 0.0 19.71452882001771 158.5262260213944 0.0 40.34006164350927 1.5642607158276653 -2.415675867059831 6.002078229591606 -0.6476090715430691 6.1696972349170185 27.629077914526775 170.8474391627332 -0.0 27.62907791452684 170.84743916273322 -0.0
39.96664732694626 -56.909799575805664 -0.013473210856318474 -0.0 -79.3402114876289 -168.9671078512536 1.6999378558820017 0.2751383275859505 9.195104992338358 1.6999378558820017 0.2751383275859505 9.195104992338358 1.6999378558820017 0.2751383275859505 9.195104992338358 -47.111900781774615 -31.157787307718536 39.52963224044216 14.432456296806246 -173.84155118197145 -39.911999125677575 1.8874049340728718 -157.79461637485468 9.158765709306447 41.683276557659156 46.47996906074011 -122.2730336165347 64.51359376523423 64.31865314653666 -113.4643254112541 15.31130379933842 177.88572780644986 38.02996928527996 1.8874049340728718 -157.79461637485468 9.158765709306447 17.443639003727156 -2.423984495994375 -171.96210573667452 59.06684250903392 -37.39694706467208 -138.29142643505884 22.45479793700404 -172.35938841389142 -81.48508696944701 29.21363115136527 4.195562523916991 8.547693091812437 -24.138083812113447 7.399978591505847 -17.619658975519446 30.109062121433606 162.08592354197785 -1.8383177092174913e-15 30.109062121433517 162.08592354197782 0.0 52.83877962923778 2.4646254543690618 -3.0915203418110844 -5.831848520856073 0.40144723067609595 3.944710796052393 26.79417754296755 173.1537970860219 -4.453901483120383e-16 26.79417754296762 173.1537970860219 4.453901483120387e-16
39.84503597021103 -57.77169466018677 -0.013402709737420082 -0.0 -142.3078381365722 -16.04127975910934 -12.506807945281123 -2.24875600687671 10.277853421009846 -12.506807945281123 -2.24875600687671 10.277853421009846 -12.506807945281123 -2.24875600687671 10.277853421009846 -51.89675911275655 -42.78961268254354 49.6326722499319 15.49306602970422 -175.06464494343513 -41.30183305392394 16.008403630117478 -149.70877901536795 2.0515697787387186 33.01212503993049 30.162240756401847 -133.1526666206584 70.39311564919201 37.40511987237694 -140.931414473012 15.661227684320588 176.23056527970178 58.41277136574092 16.008403630117474 -149.70877901536795 2.0515697787387284 14.288551995793828 -1.6722417789971948 -173.25387564296844 48.72604726604924 -14.916238256304384 -160.48373576987885 29.60312593356122 -174.29252445767136 -80.13783118975238 18.546315731225995 2.2439001945051658 7.022936600436392 -40.453408238640904 10.097075368218588 -15.347213970529172 22.081251214133975 165.84374609358747 8.580771792600081e-16 22.081251214133932 165.8437460935875 -8.58077179260008e-16 50.0455633276219 0.5225878981134994 -0.6817220937065758 -25.168084259993954 1.2243896280748026 2.8770701940907015 26.145588843814675 177.17547873527775 -2.2144336307847665e-16 26.145588843814597 177.17547873527775 -0.0
39.766448736190796 -58.16833972930908 -0.012715067714452744 -0.0 -158.15350650894172 -13.497987437370247 -24.94054704213142 -5.183518019505404 12.141205370580362 -24.94054704213142 -5.183518019505404 12.141205370580362 -24.94054704213142 -5.183518019505404 12.141205370580362 -44.1688992521412 -29.32168443461159 38.87231565392708 16.13940055382576 -172.6509152720496 -40.27804447951991 26.039197561705407 -178.78790256793215 9.386385110182704 36.13752675498299 28.36358519373211 -137.52678213993866 72.07315730631554 32.31449832336201 -146.38388042353165 15.07798125855291 -173.40018423778832 56.937637264827266 26.039197561705407 -178.78790256793215 9.386385110182697 -4.35448005512853 0.45403046468607366 -174.04160859704214 42.07907043536261 -10.372779041149546 -164.7231115068141 24.076761055464218 -176.06545020912364 -74.48354431763892 10.982219815514107 1.1793954662725583 6.167848950902635 -50.097973785246296 9.197341562393097 -11.918217707317963 21.442049402053073 167.27135136641317 -8.542641897944166e-16 21.442049402053154 167.27135136641314 8.54264189794417e-16 49.292916855227006 -1.2296545717654301 1.6219363406417369 -30.11262224619618 0.5198332467539247 1.0360563770669418 25.320129707512425 177.76443149105847 -1.0995550027079126e-16 25.32012970751239 177.76443149105845 -1.0995550027079125e-16
39.755840599536896 -58.23472440242767 -0.01249497290700674 -0.0 -159.6758235797978 -10.983428590201099 -28.198962797236042 -6.419772612641429 13.39354612310865 -28.198962797236042 -6.419772612641429 13.39354612310865 -28.198962797236042 -6.419772612641429 13.39354612310865 -44.00545127593508 -31.470010001671863 41.38129204446625 14.017906388086038 -172.7219019182696 -37.19171852992548 29.04241524919973 177.96952187131257 11.290185588535083 35.33508830185588 24.964430678683733 -141.16747152294403 73.97510757544497 16.459593256489818 -162.91303258950583 12.681424379780143 -171.9443908050837 62.745461202784654 29.04241524919973 177.96952187131257 11.290185588535083 -4.666142952196351 0.47686390934526296 -174.1582802387193 40.167228529730835 -9.287267077578429 -165.77389258924822 21.391123937784464 -178.09416762736225 -75.0209124132983 7.134903965115696 0.7309264404856174 5.864545817532859 -58.244593114509456 7.640114880636827 -8.964924964559724 25.335669480315513 167.29078184699495 0.0 25.335669480315605 167.29078184699495 0.0 40.401892346853586 -1.9258464774396211 2.969777288456826 -22.75784651486399 -0.18024191345157697 -0.46592858978935314 28.38528128646702 -179.73801017951635 1.4121908519902716e-17 28.385281286467084 -179.73801017951635 1.4121908519902722e-17
